{"title":"Thiruttu Rail 2015 Tamil Movies HD TS XviD AAC New +Sample ☻rDX☻","uid":12996476,"size":742462050,"categoryP":"video","categoryS":"movies","magnet":"?xt=urn:btih:189dbabe6e882f52a5e29f1eb285e1acf74dec11&amp;dn=Thiruttu+Rail+2015+Tamil+Movies+HD+TS+XviD+AAC+New+%2BSample+%E2%98%BBrDX%E2%98%BB&amp;tr=udp%3A%2F%2Ftracker.leechers-paradise.org%3A6969&amp;tr=udp%3A%2F%2Fzer0day.ch%3A1337&amp;tr=udp%3A%2F%2Fopen.demonii.com%3A1337&amp;tr=udp%3A%2F%2Ftracker.coppersurfer.tk%3A6969&amp;tr=udp%3A%2F%2Fexodus.desync.com%3A6969","seeders":0,"leechers":1,"uploader":"basicssom","files":2,"time":1450164412,"description":"----------------------------------------------------------------\r\nThiruttu Rail 2015 Tamil Movies HD TS XviD AAC New Source with Sample ~ ☻rDX☻\r\n\r\nSCREEN SHOTS &amp; POSTER:\r\n  \nhttp://doctorhosts.com/2015/12/ThiruttuRail/11.html  \nhttp://doctorhosts.com/2015/12/ThiruttuRail/1.html  \nhttp://doctorhosts.com/2015/12/ThiruttuRail/2.html  \nhttp://doctorhosts.com/2015/12/ThiruttuRail/3.html  \nhttp://doctorhosts.com/2015/12/ThiruttuRail/4.html  \nhttp://doctorhosts.com/2015/12/ThiruttuRail/5.html  \nhttp://doctorhosts.com/2015/12/ThiruttuRail/6.html  \nhttp://doctorhosts.com/2015/12/ThiruttuRail/7.html  \nhttp://doctorhosts.com/2015/12/ThiruttuRail/8.html  \nhttp://doctorhosts.com/2015/12/ThiruttuRail/9.html  \nhttp://doctorhosts.com/2015/12/ThiruttuRail/10.html\r\n\r\nFormat                                   : Matroska\r\nFormat version                           : Version 4 / Version 2\r\nFile size                                : 704 MiB\r\nDuration                                 : 2h 10mn\r\nOverall bit rate                         : 754 Kbps\r\nMovie name                               : Thiruttu Rail 2015 Tamil Movies HD TS XviD AAC New Source ~ rDX ~\r\n\r\nVideo\r\nID                                       : 1\r\nFormat                                   : AVC\r\nFormat/Info                              : Advanced Video Codec\r\nFormat profile                           :   \r\nFormat settings, CABAC                   : Yes\r\nFormat settings, ReFrames                : 4 frames\r\nCodec ID                                 : V_MPEG4/ISO/AVC\r\nDuration                                 : 2h 10mn\r\nBit rate                                 : 656 Kbps\r\nWidth                                    : 608 pixels\r\nHeight                                   : 256 pixels\r\nDisplay aspect ratio                     : 2.40:1\r\nFrame rate mode                          : Constant\r\nFrame rate                               : 29.970 fps\r\nColor space                              : YUV\r\nChroma subsampling                       : 4:2:0\r\nBit depth                                : 8 bits\r\nScan type                                : Progressive\r\nBits/(Pixel*Frame)                       : 0.141\r\nStream size                              : 600 MiB (85%)\r\nTitle                                    : ~ rDX ~\r\nWriting library                          : XviD\r\nLanguage                                 : Tamil\r\nDefault                                  : Yes\r\nForced                                   : Yes\r\n\r\nAudio\r\nID                                       : 2\r\nFormat                                   : MPEG Audio\r\nFormat version                           : Version 1\r\nFormat profile                           : Layer 3\r\nMode                                     : Joint stereo\r\nMode extension                           : MS Stereo\r\nCodec ID                                 : A_MPEG/L3\r\nCodec ID/Hint                            : MP3\r\nDuration                                 : 2h 10mn\r\nBit rate mode                            : Constant\r\nBit rate                                 : 96.0 Kbps\r\nChannel(s)                               : 2 channels\r\nSampling rate                            : 48.0 KHz\r\nCompression mode                         : Lossy\r\nStream size                              : 89.6 MiB (13%)\r\nTitle                                    : ~ rDX ~\r\nWriting library                          : LAME3.98r\r\nEncoding settings                        : -m j -V 4 -q 3 -lowpass 15.1 -b 96\r\nLanguage                                 : Tamil\r\nDefault                                  : Yes\r\nForced                                   : Yes\r\n\r\nIMDB                                     \r\nna","torrent":{"xt":"urn:btih:189dbabe6e882f52a5e29f1eb285e1acf74dec11","amp;dn":"Thiruttu+Rail+2015+Tamil+Movies+HD+TS+XviD+AAC+New+%2BSample+%E2%98%BBrDX%E2%98%BB","amp;tr":["udp%3A%2F%2Ftracker.leechers-paradise.org%3A6969","udp%3A%2F%2Fzer0day.ch%3A1337","udp%3A%2F%2Fopen.demonii.com%3A1337","udp%3A%2F%2Ftracker.coppersurfer.tk%3A6969","udp%3A%2F%2Fexodus.desync.com%3A6969"],"infoHash":"189dbabe6e882f52a5e29f1eb285e1acf74dec11","infoHashBuffer":{"type":"Buffer","data":[24,157,186,190,110,136,47,82,165,226,159,30,178,133,225,172,247,77,236,17]},"announce":[],"urlList":[]}}